<?xml version="1.0" encoding="UTF-8"?>
<svg id="Layer_2" data-name="Layer 2" xmlns="http://www.w3.org/2000/svg" xmlns:xlink="http://www.w3.org/1999/xlink" viewBox="0 0 1300 1300">
  <defs>
    <style>
      .cls-1 {
        fill: none;
      }

      .cls-2 {
        fill: url(#Super_Soft_Black_Vignette-4);
      }

      .cls-3 {
        fill: url(#Super_Soft_Black_Vignette-5);
      }

      .cls-4 {
        fill: url(#Super_Soft_Black_Vignette-2);
      }

      .cls-5 {
        fill: url(#Super_Soft_Black_Vignette-3);
      }

      .cls-6 {
        fill: url(#Super_Soft_Black_Vignette-6);
      }

      .cls-7 {
        fill: url(#Super_Soft_Black_Vignette-7);
      }

      .cls-8 {
        fill: #231f20;
      }

      .cls-9 {
        fill: #39b54a;
      }

      .cls-10 {
        fill: url(#Super_Soft_Black_Vignette);
      }
    </style>
    <radialGradient id="Super_Soft_Black_Vignette" data-name="Super Soft Black Vignette" cx="392.74" cy="1264.82" fx="392.74" fy="1264.82" r="45.73" gradientTransform="translate(19.19 38.48) scale(.97 .94)" gradientUnits="userSpaceOnUse">
      <stop offset=".57" stop-color="#130c0e"/>
      <stop offset=".8" stop-color="#130c0e"/>
      <stop offset="1" stop-color="#130c0e"/>
    </radialGradient>
    <radialGradient id="Super_Soft_Black_Vignette-2" data-name="Super Soft Black Vignette" cx="339.99" cy="1255.17" fx="339.99" fy="1255.17" r="43.04" xlink:href="#Super_Soft_Black_Vignette"/>
    <radialGradient id="Super_Soft_Black_Vignette-3" data-name="Super Soft Black Vignette" cx="291.27" cy="1245.02" fx="291.27" fy="1245.02" r="41.78" xlink:href="#Super_Soft_Black_Vignette"/>
    <radialGradient id="Super_Soft_Black_Vignette-4" data-name="Super Soft Black Vignette" cx="243.77" cy="1234.52" fx="243.77" fy="1234.52" r="39.5" xlink:href="#Super_Soft_Black_Vignette"/>
    <radialGradient id="Super_Soft_Black_Vignette-5" data-name="Super Soft Black Vignette" cx="199.36" cy="1221.27" fx="199.36" fy="1221.27" r="34.53" xlink:href="#Super_Soft_Black_Vignette"/>
    <radialGradient id="Super_Soft_Black_Vignette-6" data-name="Super Soft Black Vignette" cx="158.2" cy="1210.99" fx="158.2" fy="1210.99" r="29.56" xlink:href="#Super_Soft_Black_Vignette"/>
    <radialGradient id="Super_Soft_Black_Vignette-7" data-name="Super Soft Black Vignette" cx="123.21" cy="1201.09" fx="123.21" fy="1201.09" r="25.14" xlink:href="#Super_Soft_Black_Vignette"/>
  </defs>
  <g id="Layer_1-2" data-name="Layer 1">
    <g>
      <path class="cls-8" d="M1032.48,127.83c.93-1.36,1.67-2.67,2.23-3.92-1.02,1.14-1.78,2.47-2.23,3.92Z"/>
      <path class="cls-1" d="M1032.48,127.83c.93-1.36,1.67-2.67,2.23-3.92-1.02,1.14-1.78,2.47-2.23,3.92Z"/>
      <g>
        <path class="cls-9" d="M916.29,856.22c.14-.65.25-1.26.36-1.84.04-.2.08-.38.1-.57.01-.1.03-.19.04-.27-.15.8-.32,1.71-.5,2.68ZM916.85,853.28c.04-.26.09-.51.13-.76-.02.09-.04.16-.05.25-.03.16-.05.34-.08.51Z"/>
        <path class="cls-9" d="M426.22,1091.62c32.06,1.61,63.57,1.41,94.13-.47.89-.06,1.76-.1,2.63-.16,12.9-.73,25.63-1.63,38.17-2.73,12.37-1.08,24.52-2.36,36.49-3.84.94-.11,1.85-.23,2.77-.37,256.12-34.35,306.31-183.91,315.37-225.29-9.98,47.58-68.94,239.67-373.09,267.07,0,0,136.44,13.68,263.12-58.03.34-.19.71-.39,1.07-.6,50.25-27.57,105.39-70.48,138.18-134.93.02-.03.05-.06.07-.11.01-.03.02-.08.04-.11,13.01-25.56,22.46-54.51,26.73-87.25.06-.34.1-.66.15-1,3.1-24.38,3.31-50.86-.06-79.59-7.04-59.77-36.96-105.44-78.2-142.88-149.58-135.84-448.11-163.68-343.5-365.65-164.58,40.69-32.34,221.38-31.04,223.15-100.89-65.26-142.52-301.93,127.65-239.99.06.02.12.02.21.05,21.12,49.1,68.35,51.99,119.37,61.62,19.09,14.31,40.37,29.27,62.5,43.06t.03.02c55.27,34.41,115.85,61.52,160.98,53.21,0,0-19.42-33.56-42.75-46.17,2.52.81,83.08,27.64,86.16,121.14,0,0,7.8-41.44-2.65-63.96.88.85,29.75,27.46,33.15,54.33,0,0,.98-44.62-36.54-77.86,0,0,16.68,2.21,23.46-4.1,0,0-20.96-31.29-88.1-55.77-67.16-24.49-78.18-87.24-69.75-130.46,0,0-98.73,6.68-128.33-2.97,0,0,24.24,67.51,77.87,118.99-1.79-1.1-59.07-36.78-97.88-123.89,0,0-95.37-24.53-74.81-83.15,0,0,1.33,71.65,130.33,77.13,81.05,3.45,136.47-7.92,193.81-9.7-3.3,26.83-15.54,60.21-15.54,60.21,29.11-25.37,41.46-47.93,46.45-60.11,15.3.63,31.06,2.19,47.76,5.13-1.72,27.6-16.19,67.07-16.19,67.07,29.36-25.6,41.67-48.32,46.58-60.43.12.02.26.06.38.1,0,0,63.79-28.56,54.55-86.74,0,0-6.36,15-47.21-12-40.83-27-121.27-13.41-157.32-69.58,0,0-19.88-11.33-35.09-5.06,6.92,12.65,28.29,45.62,69.86,61.27-4.45-1.44-75.15-24.63-107.26-67.85-21.5-4.41-51.4-4.52-80.42,15.79-50.34,35.23-215.29,24.92-326.13,88.62-.92.36-1.83.74-2.73,1.12-215.48,90.41-247.09,318.82-63.18,437.7,24.24,15.68,47.49,29.85,69.55,42.89,100.91,59.65,177.49,95.7,216.85,144.34,0,0,0,.02.02.02.02.02.03.06.05.08,50.31,70.62,36.51,148.86-94.97,172.51-17.37,3.13-36.8,5.3-58.42,6.37-.1.02-.21.02-.33.03-2.67.14-5.21.27-7.72.42-23.68,1.15-48.81,1.16-74.72-.13-23.46-1.18-46.04-3.35-67.3-6.35-100.69-14.21-171.79-47.11-167.83-81.69,1.02-8.98,7.04-17.35,17.17-24.88.05-.03.09-.06.14-.08,7.84-5.82,18.14-11.13,30.5-15.83,61.79-25.29,176.14-44.14,300.96-42.41,18.55.24,37.36.95,56.25,2.16l16.01-2.45c-34.71-31.93-106.93-73.43-221.63-146.63-68.02,8.3-131.96,21.82-189.91,39.78l.77.19C102.89,670.52,10.65,741.6.85,827.29c-15.23,133.45,175.2,251.8,425.36,264.32ZM1033.75,129.62c.08-.85.23-1.68.49-2.47.92-1.35,1.66-2.66,2.23-3.93,5.07-11.15-2.63-18.01-2.63-18.01,6.99.14,22.61,5.7,22.24,23.75,0,.34.02.73-.02,1.09-.44,5.93-5.79,10.65-11.94,10.54-6.17-.12-10.8-5.03-10.37-10.97ZM1032.48,127.83c.45-1.44,1.21-2.78,2.23-3.92-.56,1.24-1.3,2.56-2.23,3.92ZM821.47,71.4c6.62-5.94,27.16-22.52,52.66-24.84,0,0,33.8,30.17,84.2,37.93,0,0-81.6,40.33-107.14-19.42,0,0-19.91-1.35-29.73,6.33ZM916.29,856.22c.18-.97.35-1.87.5-2.68.05-.27.1-.53.14-.78.01-.09.03-.16.05-.25-.04.25-.09.5-.13.76-.03.17-.06.36-.1.54-.03.19-.06.37-.1.57-.1.58-.22,1.19-.36,1.84Z"/>
        <path class="cls-9" d="M916.29,856.22c.14-.65.25-1.26.36-1.84.04-.2.08-.38.1-.57.04-.18.08-.37.1-.54.04-.26.09-.51.13-.76-.02.09-.04.16-.05.25-.04.25-.09.51-.14.78-.15.8-.32,1.71-.5,2.68Z"/>
      </g>
      <path class="cls-8" d="M945.12,932.15s.04-.06.06-.1h-.02s-.02.06-.04.1Z"/>
      <path class="cls-8" d="M916.29,856.22c.14-.65.25-1.26.36-1.84.04-.2.08-.38.1-.57.04-.18.08-.37.1-.54.04-.26.09-.51.13-.76-.02.09-.04.16-.05.25-.04.25-.09.51-.14.78-.15.8-.32,1.71-.5,2.68Z"/>
      <g>
        <path class="cls-9" d="M541.52,911.83c21.62-1.07,41.05-3.24,58.42-6.37-18.01,2.95-37.62,5.11-58.42,6.37Z"/>
        <path class="cls-9" d="M628.64,743.06c3.59.22,7.14.48,10.72.74,3.16.23,6.3.48,9.45.75-1.32-1.29-2.69-2.61-4.16-3.94l-16.01,2.45Z"/>
        <path class="cls-9" d="M433.29,1283.81c324.63,56.88,683.94-43.46,797.6-186.77,0-.02.02-.02.02-.04,38.66-39.24,62.54-83.25,67.93-130.39,15.17-132.85-120.58-255.66-332.45-324.56,0,.02.02.02.02.04,48.42,70.03,60.7,127.25,60.53,167.5,0,0,97.81,85.45,78.65,180.6,0,0-17.85-101.55-82.13-145.81-4.14,20.2-10.52,31.04-10.52,31.04,39.98,35.41,60.65,75.38,55.91,116.73-14.13,123.58-249.82,212.54-526.48,198.68-32.95-1.65-64.99-4.69-95.85-8.98-.02.02-.02.04-.05.06-4.66,6.23-8.78,12.11-11.64,17.91-26.98,54.64-1.55,84.01-1.55,84.01Z"/>
        <path class="cls-9" d="M434.84,1199.8c3.12-5.69,6.99-11.68,11.64-17.91-.61.64-6.61,7.15-11.64,17.91Z"/>
      </g>
      <path class="cls-10" d="M430.86,1183.73c-10.97,13.58-33.92,48.81-18.32,91.09,1.39,3.78-2.81,7.31-7.11,5.92-13.83-4.48-36.14-15.96-36.59-43.36-.6-36.35,20.01-65.23,58.15-61.18,4.14.44,6.24,4.6,3.87,7.53Z"/>
      <path class="cls-4" d="M377.87,1177.26c-10.33,12.78-31.93,45.95-17.25,85.75,1.31,3.56-2.64,6.88-6.69,5.57-13.02-4.22-34.02-15.02-34.44-40.81-.57-34.22,18.84-61.4,54.74-57.59,3.89.41,5.87,4.33,3.64,7.09Z"/>
      <path class="cls-5" d="M329.74,1168.95c-10.02,12.4-30.99,44.6-16.74,83.23,1.27,3.45-2.57,6.68-6.49,5.4-12.63-4.1-33.02-14.58-33.43-39.61-.55-33.21,18.29-59.6,53.13-55.9,3.78.4,5.7,4.2,3.53,6.88Z"/>
      <path class="cls-2" d="M282.12,1161.31c-9.48,11.73-29.29,42.16-15.83,78.68,1.2,3.27-2.43,6.31-6.14,5.11-11.94-3.87-31.21-13.78-31.61-37.45-.52-31.4,17.29-56.34,50.23-52.85,3.57.38,5.39,3.97,3.34,6.51Z"/>
      <path class="cls-3" d="M236.29,1154.34c-8.62,9.92-26.84,35.79-16.32,67.92.94,2.87-2.31,5.42-5.5,4.26-10.26-3.72-26.68-12.89-26.26-33.47.57-27.3,16.86-48.46,45.38-44.46,3.09.43,4.56,3.61,2.69,5.75Z"/>
      <path class="cls-6" d="M193.33,1149.9c-7.59,8.26-23.77,29.91-15.6,57.53.73,2.47-2.11,4.56-4.8,3.51-8.65-3.39-22.43-11.58-21.55-29.11,1.16-23.26,15.58-40.93,39.79-36.89,2.63.44,3.79,3.18,2.15,4.96Z"/>
      <path class="cls-7" d="M156.3,1144.75c-6.46,7.03-20.22,25.44-13.27,48.93.62,2.1-1.79,3.88-4.08,2.99-7.36-2.89-19.08-9.85-18.33-24.76.99-19.78,13.25-34.82,33.85-31.38,2.23.37,3.23,2.7,1.83,4.22Z"/>
    </g>
  </g>
</svg>