<?xml version="1.0" encoding="UTF-8"?>
<svg id="Layer_2" data-name="Layer 2" xmlns="http://www.w3.org/2000/svg" viewBox="0 0 512 512">
  <defs>
    <style>
      .cls-1 {
        fill: none;
      }

      .cls-2 {
        fill: #231f20;
      }

      .cls-3 {
        fill: #5d2f86;
      }
    </style>
  </defs>
  <g id="Layer_2-2" data-name="Layer 2">
    <g id="Layer_1-2" data-name="Layer 1-2">
      <g>
        <path class="cls-2" d="M406.63,50.34c.36-.53.66-1.05.88-1.54-.4.45-.7.97-.88,1.54Z"/>
        <path class="cls-1" d="M406.63,50.34c.36-.53.66-1.05.88-1.54-.4.45-.7.97-.88,1.54Z"/>
        <g>
          <path class="cls-3" d="M360.87,337.21c.05-.26.1-.5.14-.72.02-.08.03-.15.04-.23,0-.04.01-.07.02-.11-.06.32-.13.67-.2,1.05h0ZM361.09,336.06c.02-.1.04-.2.05-.3-.01.04-.02.07-.02.1-.01.07-.02.13-.03.2h0Z"/>
          <path class="cls-3" d="M167.86,429.93c12.63.63,25.03.55,37.07-.19.35-.02.69-.04,1.04-.07,5.08-.29,10.09-.64,15.04-1.08,4.87-.42,9.66-.93,14.37-1.52.37-.05.73-.09,1.09-.14,100.87-13.53,120.64-72.43,124.2-88.73-3.93,18.74-27.15,94.39-146.94,105.19,0,0,53.74,5.39,103.63-22.86.14-.08.28-.15.42-.24,19.79-10.86,41.51-27.76,54.42-53.14.01-.01.02-.03.03-.04,0-.02.01-.03.02-.04,5.12-10.07,8.85-21.47,10.53-34.37.03-.13.04-.26.06-.39,1.22-9.6,1.3-20.03-.03-31.34-2.77-23.54-14.56-41.52-30.8-56.27-58.91-53.5-176.49-64.46-135.28-144.01-64.82,16.03-12.74,87.19-12.23,87.89-39.73-25.7-56.13-118.91,50.27-94.52.02.01.05.01.08.02,8.32,19.34,26.92,20.48,47.01,24.27,7.52,5.64,15.9,11.53,24.62,16.96q5.81,3.62.01.01c21.77,13.55,45.63,24.23,63.4,20.96,0,0-7.65-13.22-16.84-18.18.99.32,32.72,10.89,33.93,47.71,0,0,3.07-16.32-1.05-25.19.35.33,11.71,10.81,13.06,21.4,0,0,.39-17.57-14.39-30.66,0,0,6.57.87,9.24-1.61,0,0-8.25-12.32-34.69-21.97-26.45-9.65-30.79-34.36-27.47-51.38,0,0-38.88,2.63-50.54-1.17,0,0,9.54,26.59,30.67,46.86-.7-.43-23.26-14.48-38.55-48.79,0,0-37.56-9.66-29.47-32.75,0,0,.52,28.22,51.33,30.38,31.92,1.36,53.75-3.12,76.33-3.82-1.3,10.57-6.12,23.72-6.12,23.72,11.47-9.99,16.32-18.88,18.3-23.68,6.03.25,12.23.86,18.81,2.02-.68,10.87-6.37,26.41-6.37,26.41,11.56-10.08,16.41-19.03,18.35-23.8.05.01.1.03.15.04,0,0,25.12-11.25,21.49-34.17,0,0-2.5,5.91-18.59-4.73-16.08-10.63-47.76-5.28-61.96-27.4,0,0-7.83-4.46-13.82-1.99,2.73,4.98,11.14,17.97,27.51,24.13-1.75-.57-29.6-9.7-42.25-26.72-8.47-1.74-20.24-1.78-31.67,6.22-19.83,13.88-84.79,9.82-128.45,34.9-.36.14-.72.29-1.07.44-84.87,35.6-97.31,125.57-24.88,172.39,9.55,6.17,18.7,11.76,27.39,16.89,39.74,23.49,69.91,37.69,85.41,56.85,0,0,0,.01.01.01.01.01.01.02.02.03,19.81,27.82,14.38,58.63-37.4,67.94-6.84,1.23-14.49,2.09-23.01,2.51-.04.01-.08,0-.13.01-1.05.06-2.05.11-3.04.16-9.33.46-19.22.46-29.43-.05-9.24-.47-18.13-1.32-26.5-2.5-39.66-5.6-67.66-18.56-66.1-32.17.4-3.54,2.77-6.84,6.77-9.8.02-.01.04-.03.05-.03,3.08-2.29,7.15-4.38,12.01-6.24,24.34-9.96,69.37-17.38,118.53-16.7,7.3.09,14.71.37,22.15.85l6.31-.96c-13.67-12.57-42.11-28.92-87.29-57.75-26.79,3.27-51.97,8.59-74.8,15.67l.31.08C40.52,264.08,4.19,292.07.34,325.82c-6,52.56,69,99.17,167.53,104.1h0ZM407.14,51.04c.03-.33.09-.66.2-.97.36-.53.65-1.05.88-1.55,2-4.39-1.04-7.09-1.04-7.09,2.75.05,8.9,2.25,8.76,9.35,0,.13,0,.29-.01.43-.17,2.33-2.28,4.19-4.7,4.15-2.43-.05-4.26-1.98-4.08-4.32h0ZM406.63,50.34c.17-.57.48-1.1.88-1.54-.22.49-.51,1.01-.88,1.54ZM323.53,28.11c2.61-2.34,10.69-8.87,20.74-9.78,0,0,13.31,11.88,33.16,14.94,0,0-32.14,15.88-42.19-7.65,0,0-7.84-.53-11.71,2.49ZM360.87,337.21c.07-.38.14-.74.2-1.05.02-.11.04-.21.06-.31,0-.04.01-.07.02-.1-.02.1-.04.2-.05.3-.01.07-.03.14-.04.22-.01.07-.03.14-.04.23-.04.23-.08.47-.14.72h0Z"/>
          <path class="cls-3" d="M360.87,337.21c.05-.26.1-.5.14-.72.02-.08.03-.15.04-.23.02-.07.03-.14.04-.22.02-.1.04-.2.05-.3-.01.04-.02.07-.02.1-.02.1-.04.2-.06.31-.06.32-.13.67-.2,1.05h0Z"/>
        </g>
        <path class="cls-2" d="M372.23,367.12s.02-.03.02-.04h-.01s-.01.03-.02.04h0Z"/>
        <path class="cls-2" d="M360.87,337.21c.05-.26.1-.5.14-.72.02-.08.03-.15.04-.23.02-.07.03-.14.04-.22.02-.1.04-.2.05-.3-.01.04-.02.07-.02.1-.02.1-.04.2-.06.31-.06.32-.13.67-.2,1.05h0Z"/>
        <path class="cls-3" d="M260.02,297.74s4.06,4.74,5.08,8.79c0,0-76-8.34-118.95-.62,0,0,33.34-12.46,113.87-8.16Z"/>
        <g>
          <path class="cls-3" d="M213.27,359.12c8.51-.42,16.17-1.27,23.01-2.51-7.09,1.16-14.81,2.01-23.01,2.51Z"/>
          <path class="cls-3" d="M247.58,292.64c1.42.09,2.82.19,4.22.29,1.25.09,2.48.19,3.72.3-.52-.51-1.06-1.03-1.64-1.55l-6.31.96h0Z"/>
          <path class="cls-3" d="M170.65,505.62c127.85,22.41,269.37-17.12,314.13-73.56,0,0,.01,0,.01-.02,15.23-15.46,24.63-32.79,26.76-51.35,5.98-52.32-47.49-100.69-130.93-127.83,0,0,.01.01.01.02,19.07,27.58,23.9,50.12,23.84,65.97,0,0,38.52,33.65,30.98,71.13,0,0-7.03-39.99-32.34-57.43-1.63,7.96-4.15,12.23-4.15,12.23,15.74,13.95,23.88,29.69,22.02,45.97-5.56,48.67-98.39,83.71-207.35,78.25-12.98-.65-25.59-1.85-37.75-3.54-.01,0-.01.02-.02.02-1.83,2.45-3.46,4.77-4.58,7.05-10.63,21.52-.61,33.09-.61,33.09h0Z"/>
          <path class="cls-3" d="M171.26,472.54c1.23-2.24,2.75-4.6,4.58-7.05-.24.25-2.6,2.82-4.58,7.05Z"/>
        </g>
        <path class="cls-3" d="M169.69,466.2c-4.32,5.35-13.36,19.23-7.21,35.88.55,1.49-1.1,2.88-2.8,2.33-5.45-1.77-14.23-6.28-14.41-17.08-.24-14.32,7.89-25.69,22.91-24.09,1.63.17,2.46,1.81,1.52,2.96Z"/>
        <path class="cls-3" d="M148.82,463.66c-4.07,5.03-12.58,18.1-6.79,33.77.52,1.4-1.04,2.71-2.64,2.19-5.13-1.66-13.4-5.91-13.57-16.07-.22-13.48,7.42-24.18,21.56-22.68,1.53.16,2.31,1.7,1.44,2.79h0Z"/>
        <path class="cls-3" d="M129.86,460.39c-3.95,4.88-12.21,17.57-6.59,32.78.5,1.36-1.01,2.63-2.56,2.13-4.98-1.61-13-5.74-13.17-15.6-.22-13.08,7.2-23.47,20.93-22.02,1.49.16,2.24,1.65,1.39,2.71h0Z"/>
        <path class="cls-3" d="M111.11,457.37c-3.73,4.62-11.54,16.6-6.23,30.99.48,1.29-.96,2.49-2.42,2.01-4.71-1.53-12.3-5.43-12.45-14.75-.21-12.36,6.81-22.19,19.78-20.81,1.4.15,2.12,1.57,1.32,2.56h0Z"/>
        <path class="cls-3" d="M93.06,454.63c-3.4,3.91-10.57,14.1-6.43,26.75.37,1.13-.91,2.14-2.17,1.68-4.04-1.46-10.51-5.07-10.34-13.18.23-10.75,6.64-19.09,17.87-17.51,1.22.17,1.8,1.42,1.06,2.26h0Z"/>
        <path class="cls-3" d="M76.14,452.88c-2.99,3.25-9.36,11.78-6.14,22.66.29.97-.83,1.8-1.89,1.38-3.41-1.34-8.83-4.56-8.49-11.46.46-9.16,6.14-16.12,15.67-14.53,1.04.17,1.49,1.25.85,1.96Z"/>
        <path class="cls-3" d="M61.55,450.85c-2.55,2.76-7.96,10.02-5.22,19.27.24.83-.71,1.53-1.61,1.18-2.9-1.14-7.52-3.88-7.22-9.75.39-7.79,5.22-13.71,13.33-12.36.88.15,1.27,1.06.72,1.66h0Z"/>
      </g>
    </g>
  </g>
</svg>